<?xml version="1.0" encoding="UTF-8"?>
<svg version="1.1" xmlns="http://www.w3.org/2000/svg" width="192" height="192">
<path d="M0 0 C0.64594557 -0.00779995 1.29189114 -0.01559991 1.95741081 -0.02363622 C4.11428335 -0.04352458 6.26938504 -0.02780701 8.42626953 -0.01205444 C9.97553536 -0.01883209 11.52479312 -0.02773605 13.07403564 -0.03860474 C17.27662175 -0.06138768 21.47859373 -0.05256619 25.68119049 -0.03670931 C30.08044584 -0.02404499 34.47964882 -0.03579189 38.87890625 -0.04364014 C46.26653478 -0.05273517 53.65391333 -0.04075271 61.04150391 -0.01693726 C69.58101624 0.01027386 78.11993169 0.00145958 86.65942955 -0.02606928 C93.99293309 -0.0487636 101.32625701 -0.0519589 108.65978432 -0.03887594 C113.03905648 -0.03108315 117.41804814 -0.03003495 121.79730225 -0.04655838 C125.91467968 -0.06100872 130.03128806 -0.05097192 134.14858246 -0.0220871 C135.65905226 -0.01547918 137.16958685 -0.01736906 138.68003082 -0.02840042 C140.74361356 -0.04208137 142.80473777 -0.02491639 144.86816406 0 C146.02220734 0.00188513 147.17625061 0.00377026 148.36526489 0.00571251 C152.39845366 0.83264525 153.91282843 2.44405967 156.43408203 5.63491821 C156.78955078 9.03335571 156.78955078 9.03335571 156.62158203 13.00991821 C156.60414831 22.20569282 159.92551861 29.46063488 163.92895508 37.61489868 C167.06485486 44.1176037 168.80851012 48.86665094 166.73486328 56.06069946 C164.57635716 60.18148388 162.90649719 62.75179604 158.43408203 64.63491821 C157.77408203 64.63491821 157.11408203 64.63491821 156.43408203 64.63491821 C156.44296448 65.42561203 156.45184692 66.21630585 156.46099854 67.03096008 C156.5412193 74.4904532 156.60208405 81.94973652 156.64133072 89.40954876 C156.66218641 93.24454368 156.69046619 97.07918152 156.73583984 100.91397095 C156.77937111 104.61631074 156.80323432 108.31830756 156.813591 112.02088356 C156.82096945 113.43188691 156.83537817 114.84287194 156.85700226 116.25372887 C156.88612682 118.23306269 156.8877167 120.21274323 156.88818359 122.19229126 C156.89706604 123.31814133 156.90594849 124.44399139 156.9151001 125.60395813 C156.3258324 129.31701383 155.02636889 130.96446882 152.43408203 133.63491821 C149.66203336 135.02094255 147.40811872 134.77047711 144.30485535 134.78208923 C142.99672379 134.78924454 141.68859222 134.79639984 140.34082031 134.80377197 C138.8825686 134.80661237 137.42431662 134.80932409 135.96606445 134.81192017 C134.43695419 134.81818364 132.90784546 134.82483034 131.3787384 134.83183289 C127.21750211 134.84925283 123.05627731 134.85979726 118.89501357 134.86803842 C116.29621604 134.87318626 113.69742209 134.87926208 111.09862709 134.88554955 C102.97051925 134.90460404 94.8424205 134.91883486 86.71429461 134.92716151 C77.32624419 134.93693718 67.93842934 134.96326412 58.55046195 135.00366241 C51.29774752 135.03380319 44.0451007 135.04862843 36.79232484 135.05194253 C32.45883225 135.05429527 28.12559126 135.0632846 23.79216576 135.0884037 C19.71520722 135.11165411 15.63866647 135.11593007 11.56165886 135.10564232 C10.06567751 135.10514611 8.56967581 135.11149165 7.07375717 135.12519836 C5.03066758 135.14287052 2.98739724 135.13344109 0.94425964 135.12266541 C-0.1989314 135.12505376 -1.34212244 135.12744211 -2.51995564 135.12990284 C-6.2353882 134.52612584 -7.89280546 133.23226479 -10.56591797 130.63491821 C-11.95017208 127.86640999 -11.68551759 125.63072637 -11.67944336 122.53286743 C-11.67936783 121.25169037 -11.6792923 119.97051331 -11.67921448 118.6505127 C-11.67410745 117.24687664 -11.66889145 115.84324098 -11.66357422 114.43960571 C-11.66170942 113.00756886 -11.66028581 111.57553137 -11.6592865 110.14349365 C-11.65546616 106.37218468 -11.64563999 102.60091414 -11.63458252 98.82962036 C-11.62435802 94.98217285 -11.61978665 91.13471914 -11.61474609 87.28726196 C-11.6040173 79.73646318 -11.58694666 72.18569608 -11.56591797 64.63491821 C-12.34580078 64.34230103 -13.12568359 64.04968384 -13.92919922 63.74819946 C-17.76234038 62.12976208 -19.80612526 60.00254509 -21.81591797 56.38491821 C-24.14598371 47.84134384 -21.36427779 42.30667762 -17.62841797 34.69741821 C-13.46798506 25.82401159 -11.50827598 18.81351238 -11.92138672 9.03335571 C-11.56591797 5.63491821 -11.56591797 5.63491821 -9.45407104 2.96219826 C-5.98098093 0.16357467 -4.4080654 0.00720057 0 0 Z " fill="#BDC8FD" transform="translate(23.56591796875,28.365081787109375)"/>
<path d="M0 0 C2.5625 0.9375 2.5625 0.9375 4.3125 2.9375 C7.6857194 5.93591724 11.13470691 6.15236691 15.5625 5.9375 C18.96994551 4.63647535 20.99922978 3.50077022 23.5625 0.9375 C27.25106162 0.19978768 29.34736408 1.19563426 32.375 3.1875 C34.20703125 4.453125 34.20703125 4.453125 35.5625 5.9375 C35.5625 7.2575 35.5625 8.5775 35.5625 9.9375 C38.5325 9.9375 41.5025 9.9375 44.5625 9.9375 C44.9478894 11.59519409 44.9478894 11.59519409 45.34106445 13.28637695 C46.29744363 17.38713408 47.26802222 21.48442007 48.24291992 25.58081055 C48.66281808 27.35398417 49.07886332 29.1280748 49.4909668 30.90307617 C50.08411444 33.45482445 50.69105613 36.00295023 51.30078125 38.55078125 C51.48216141 39.34462723 51.66354156 40.13847321 51.85041809 40.95637512 C52.81002224 44.90517343 53.64517299 47.17589757 56.5625 49.9375 C57.50443717 52.57190181 57.97707053 55.1904848 58.5625 57.9375 C60.8725 57.9375 63.1825 57.9375 65.5625 57.9375 C66.2225 55.6275 66.8825 53.3175 67.5625 50.9375 C69.8725 50.9375 72.1825 50.9375 74.5625 50.9375 C75.5525 54.8975 75.5525 54.8975 76.5625 58.9375 C81.57785052 58.60789784 81.57785052 58.60789784 85.5625 55.9375 C86.21017793 53.36688689 86.21017793 53.36688689 86.5625 50.9375 C87.2225 50.9375 87.8825 50.9375 88.5625 50.9375 C88.5625 49.6175 88.5625 48.2975 88.5625 46.9375 C78.0025 46.9375 67.4425 46.9375 56.5625 46.9375 C56.5625 45.9475 56.5625 44.9575 56.5625 43.9375 C67.1225 43.6075 77.6825 43.2775 88.5625 42.9375 C91.5325 29.5725 91.5325 29.5725 94.5625 15.9375 C79.7125 15.9375 64.8625 15.9375 49.5625 15.9375 C48.5725 12.6375 47.5825 9.3375 46.5625 5.9375 C48.875 2.3125 48.875 2.3125 51.5625 -0.0625 C54.68260566 0.52889258 56.45510165 1.47282979 58.875 3.5 C62.5217131 6.18828209 64.99008405 6.60257868 69.5625 5.9375 C72.66598153 4.68417092 74.90518005 3.64538303 77.1875 1.1875 C77.64125 0.775 78.095 0.3625 78.5625 -0.0625 C81.69848904 0.37341549 83.43771762 1.47682375 85.8125 3.5 C89.86134458 6.51918152 92.59697972 6.5168107 97.5625 5.9375 C98.5525 5.2775 99.5425 4.6175 100.5625 3.9375 C105.10304054 4.47804054 105.10304054 4.47804054 106.5625 5.9375 C106.68194501 7.53687412 106.73261937 9.14145043 106.75537109 10.74511719 C106.77143402 11.7699823 106.78749695 12.79484741 106.80404663 13.85076904 C106.84835815 18.5522001 106.88957504 23.25348713 106.91259766 27.95507812 C106.92915208 30.43629336 106.95643493 32.91746101 106.99462891 35.3984375 C107.04934839 38.96900267 107.07126676 42.53844717 107.0859375 46.109375 C107.10860687 47.21786804 107.13127625 48.32636108 107.15463257 49.46844482 C107.13106674 58.0469052 107.13106674 58.0469052 104.09228516 61.11425781 C103.25745605 61.71592773 102.42262695 62.31759766 101.5625 62.9375 C101.2325 63.2675 100.9025 63.5975 100.5625 63.9375 C98.99248284 64.04211147 97.41777974 64.07713478 95.84429932 64.08467102 C94.31328583 64.09540398 94.31328583 64.09540398 92.75134277 64.10635376 C91.62200317 64.10904266 90.49266357 64.11173157 89.32910156 64.11450195 C88.14705139 64.12107315 86.96500122 64.12764435 85.74713135 64.13441467 C82.49489112 64.15078748 79.24268463 64.1623837 75.99041462 64.1706202 C73.95897731 64.17576642 71.9275446 64.18184241 69.89611053 64.18813133 C63.54173541 64.20719259 57.18737195 64.22142022 50.83297372 64.2297433 C43.49545179 64.23951221 36.15823181 64.26581835 28.82081628 64.30624419 C23.15197246 64.33640571 17.48321517 64.35121229 11.81429267 64.35452431 C8.4275549 64.35687534 5.04113936 64.36584132 1.65448761 64.39098549 C-2.12609574 64.41524677 -5.90588662 64.41443512 -9.68652344 64.4074707 C-10.80776611 64.42028076 -11.92900879 64.43309082 -13.08422852 64.44628906 C-20.675133 64.39521139 -20.675133 64.39521139 -24.60943604 62.03312683 C-27.41088977 58.82164095 -27.56333296 57.04261793 -27.56689453 52.86108398 C-27.57004669 51.80336288 -27.57319885 50.74564178 -27.57644653 49.65586853 C-27.5744223 48.51001785 -27.57239807 47.36416718 -27.5703125 46.18359375 C-27.57126923 45.01240494 -27.57222595 43.84121613 -27.57321167 42.63453674 C-27.57389308 40.15552721 -27.57204153 37.67651589 -27.56787109 35.19750977 C-27.56251755 31.38749212 -27.56781992 27.57759211 -27.57421875 23.76757812 C-27.57355806 21.36458307 -27.57227707 18.96158809 -27.5703125 16.55859375 C-27.57233673 15.41071884 -27.57436096 14.26284393 -27.57644653 13.08018494 C-27.57329437 12.025616 -27.57014221 10.97104706 -27.56689453 9.88452148 C-27.56609894 8.9512352 -27.56530334 8.01794891 -27.56448364 7.05638123 C-27.4375 4.9375 -27.4375 4.9375 -26.4375 3.9375 C-22.71525401 3.64363847 -21.65963757 3.78940829 -18.4375 5.9375 C-13.19088593 6.43246359 -9.92093199 5.6886969 -5.4375 2.9375 C-4.921875 2.36 -4.40625 1.7825 -3.875 1.1875 C-2.4375 -0.0625 -2.4375 -0.0625 0 0 Z " fill="#D9E9FC" transform="translate(56.4375,93.0625)"/>
<path d="M0 0 C0.64594557 -0.00779995 1.29189114 -0.01559991 1.95741081 -0.02363622 C4.11428335 -0.04352458 6.26938504 -0.02780701 8.42626953 -0.01205444 C9.97553536 -0.01883209 11.52479312 -0.02773605 13.07403564 -0.03860474 C17.27662175 -0.06138768 21.47859373 -0.05256619 25.68119049 -0.03670931 C30.08044584 -0.02404499 34.47964882 -0.03579189 38.87890625 -0.04364014 C46.26653478 -0.05273517 53.65391333 -0.04075271 61.04150391 -0.01693726 C69.58101624 0.01027386 78.11993169 0.00145958 86.65942955 -0.02606928 C93.99293309 -0.0487636 101.32625701 -0.0519589 108.65978432 -0.03887594 C113.03905648 -0.03108315 117.41804814 -0.03003495 121.79730225 -0.04655838 C125.91467968 -0.06100872 130.03128806 -0.05097192 134.14858246 -0.0220871 C135.65905226 -0.01547918 137.16958685 -0.01736906 138.68003082 -0.02840042 C140.74361356 -0.04208137 142.80473777 -0.02491639 144.86816406 0 C146.02220734 0.00188513 147.17625061 0.00377026 148.36526489 0.00571251 C151.43408203 0.63491821 151.43408203 0.63491821 156.43408203 5.63491821 C156.43408203 11.24491821 156.43408203 16.85491821 156.43408203 22.63491821 C100.99408203 22.63491821 45.55408203 22.63491821 -11.56591797 22.63491821 C-11.56591797 0.01889291 -11.56591797 0.01889291 0 0 Z " fill="#77BFFC" transform="translate(23.56591796875,28.365081787109375)"/>
<path d="M0 0 C1.60332791 -0.08121924 3.20784026 -0.13929134 4.8125 -0.1875 C6.15248047 -0.23970703 6.15248047 -0.23970703 7.51953125 -0.29296875 C10 0 10 0 11.76171875 1.13671875 C13 3 13 3 14 9 C28.85 9 43.7 9 59 9 C58.33644415 15.63555854 57.57464476 21.66693195 56 28.0625 C55.82210937 28.81982422 55.64421875 29.57714844 55.4609375 30.35742188 C54.13782099 35.86217901 54.13782099 35.86217901 53 37 C50.6243148 37.0883967 48.27791326 37.11530305 45.90234375 37.09765625 C44.83905602 37.09553383 44.83905602 37.09553383 43.75428772 37.09336853 C41.48198288 37.08775443 39.20977525 37.07519963 36.9375 37.0625 C35.40039204 37.05748681 33.86328255 37.05292359 32.32617188 37.04882812 C28.55074358 37.03778042 24.77538829 37.02050641 21 37 C21 37.99 21 38.98 21 40 C31.56 40 42.12 40 53 40 C53 41.32 53 42.64 53 44 C52.34 44 51.68 44 51 44 C51.0928125 45.1446875 51.0928125 45.1446875 51.1875 46.3125 C51 49 51 49 49.9375 50.8125 C46.91496844 52.66501934 44.45067281 52.37643703 41 52 C38.8480563 48.77208445 38.79913557 47.71599191 39 44 C36.69 44 34.38 44 32 44 C32.04125 44.94875 32.0825 45.8975 32.125 46.875 C32 50 32 50 30 52 C26.5 52.3125 26.5 52.3125 23 52 C20.70986347 48.5647952 20.82157027 47.014669 21 43 C19.515 42.505 19.515 42.505 18 42 C17.0078125 39.578125 17.0078125 39.578125 16.125 36.25 C15.79242188 34.99960938 15.45984375 33.74921875 15.1171875 32.4609375 C14.74235283 30.97457124 14.37017266 29.48753417 14 28 C13.77989258 27.12375977 13.55978516 26.24751953 13.33300781 25.34472656 C12.62899337 22.52375935 11.93655408 19.70026521 11.25 16.875 C11.02715332 15.96266602 10.80430664 15.05033203 10.57470703 14.11035156 C10.36958496 13.24635742 10.16446289 12.38236328 9.953125 11.4921875 C9.76911133 10.72245605 9.58509766 9.95272461 9.39550781 9.15966797 C9 7 9 7 9 3 C6.03 3 3.06 3 0 3 C0 2.01 0 1.02 0 0 Z " fill="#6361A8" transform="translate(92,100)"/>
<path d="M0 0 C1.25472107 0.00607269 1.25472107 0.00607269 2.53479004 0.01226807 C3.39286255 0.01035461 4.25093506 0.00844116 5.13500977 0.00646973 C6.95072726 0.00510763 8.76645449 0.00880579 10.58215332 0.01715088 C13.36736854 0.02785015 16.15193872 0.01725653 18.93713379 0.00445557 C20.69885397 0.00577716 22.46057374 0.00833954 24.22229004 0.01226807 C25.05877075 0.0082196 25.89525146 0.00417114 26.75708008 0 C32.6486217 0.04797473 32.6486217 0.04797473 34.87854004 2.27789307 C35.1373291 4.40093994 35.1373291 4.40093994 35.14416504 6.99664307 C35.14803223 8.39463135 35.14803223 8.39463135 35.15197754 9.82086182 C35.14424316 10.79668213 35.13650879 11.77250244 35.12854004 12.77789307 C35.1401416 14.24162354 35.1401416 14.24162354 35.15197754 15.73492432 C35.14939941 16.6669165 35.14682129 17.59890869 35.14416504 18.55914307 C35.14190918 19.4157251 35.13965332 20.27230713 35.1373291 21.15484619 C34.87854004 23.27789307 34.87854004 23.27789307 32.87854004 25.27789307 C29.96104869 25.47787631 27.14052075 25.55764194 24.22229004 25.54351807 C23.36421753 25.54543152 22.50614502 25.54734497 21.62207031 25.54931641 C19.80635281 25.5506785 17.99062559 25.54698034 16.17492676 25.53863525 C13.38971154 25.52793598 10.60514136 25.5385296 7.81994629 25.55133057 C6.05822611 25.55000898 4.29650633 25.54744659 2.53479004 25.54351807 C1.28006897 25.54959076 1.28006897 25.54959076 0 25.55578613 C-5.89154162 25.50781141 -5.89154162 25.50781141 -8.12145996 23.27789307 C-8.38024902 21.15484619 -8.38024902 21.15484619 -8.38708496 18.55914307 C-8.38966309 17.62715088 -8.39224121 16.69515869 -8.39489746 15.73492432 C-8.38716309 14.759104 -8.37942871 13.78328369 -8.37145996 12.77789307 C-8.37919434 11.80207275 -8.38692871 10.82625244 -8.39489746 9.82086182 C-8.39231934 8.88886963 -8.38974121 7.95687744 -8.38708496 6.99664307 C-8.3848291 6.14006104 -8.38257324 5.283479 -8.38024902 4.40093994 C-7.77128383 -0.59487263 -4.18538164 0.03408149 0 0 Z " fill="#FEAD5A" transform="translate(50.1214599609375,101.72210693359375)"/>
<path d="M0 0 C8.25 0 16.5 0 25 0 C27.475 5.445 27.475 5.445 30 11 C30.52207031 12.12792969 31.04414063 13.25585938 31.58203125 14.41796875 C34.54387279 21.08446288 36.38724948 26.18725179 34.30078125 33.42578125 C32.15274315 37.52658126 30.55828719 40.37927566 26 42 C21.22233453 42.69895476 17.95230376 42.49378714 13.625 40.25 C8.80398417 36.11770072 7.49811933 32.7663192 6.5625 26.5625 C5.48134158 20.10439025 3.92992503 13.99771936 1.8671875 7.76953125 C1 5 1 5 0 0 Z " fill="#FD575B" transform="translate(156,51)"/>
<path d="M0 0 C8.25 0 16.5 0 25 0 C23.3397124 6.6411504 21.90215071 12.32145594 19.67578125 18.578125 C18.83396038 21.59505529 18.50121232 24.57935335 18.125 27.6875 C17.3174894 33.40013699 16.38569296 36.2262642 12 40 C7.97319453 42.39431677 3.58762882 42.7106327 -1 42 C-5.03002555 40.09904455 -6.64622947 38.61320225 -8.875 34.75 C-11.6514026 25.49532465 -8.91132554 19.45039469 -5 11 C-3.35 7.37 -1.7 3.74 0 0 Z " fill="#FD575B" transform="translate(11,51)"/>
<path d="M0 0 C7.92 0 15.84 0 24 0 C23.97176834 4.27067977 23.92835296 8.53590487 23.84741211 12.80517578 C23.82436699 14.25395653 23.80986831 15.7029016 23.80444336 17.15185547 C23.73295606 33.11001938 23.73295606 33.11001938 18 39 C13.67859999 42.00619131 10.21114281 42.56848831 5 42 C1.0766993 40.44892763 -1.32818492 38.10011224 -3.2734375 34.3203125 C-6.20185428 24.96827182 -4.47850936 8.95701872 0 0 Z " fill="#E0405D" transform="translate(60,51)"/>
<path d="M0 0 C7.92 0 15.84 0 24 0 C30.14126834 28.40336607 30.14126834 28.40336607 26.375 36.0625 C22.86089183 40.40889694 20.00667424 41.74916572 14.5 42.4375 C9.04282698 41.75535337 6.26881513 39.58310879 2.87109375 35.34375 C-0.46911266 29.27820104 0.31544828 21.81052214 0.25 15.0625 C0.22180773 13.60087654 0.19187579 12.13928554 0.16015625 10.67773438 C0.08343293 7.11817592 0.04256761 3.5607809 0 0 Z " fill="#E0405D" transform="translate(108,51)"/>
<path d="M0 0 C6.31692016 -0.1269082 12.63351094 -0.21439585 18.95141602 -0.2746582 C21.09997849 -0.29978285 23.24845565 -0.33388861 25.39672852 -0.37719727 C28.48735612 -0.43793792 31.57685263 -0.46623044 34.66796875 -0.48828125 C35.62648239 -0.51408768 36.58499603 -0.5398941 37.57255554 -0.56648254 C42.15840747 -0.56840566 44.3169537 -0.49718919 48.11523438 2.26757812 C49.97454572 4.96309789 50.61010129 6.01534607 50.48828125 9.20703125 C50.47216797 9.95791016 50.45605469 10.70878906 50.43945312 11.48242188 C50.37661133 12.63581055 50.37661133 12.63581055 50.3125 13.8125 C50.28994141 14.60076172 50.26738281 15.38902344 50.24414062 16.20117188 C50.18554161 18.13493929 50.09586827 20.06772167 50 22 C35.95863074 22.1162069 22.0097614 21.99058919 8 21 C7.96261719 20.11957031 7.92523438 19.23914063 7.88671875 18.33203125 C7.82097656 17.17058594 7.75523437 16.00914063 7.6875 14.8125 C7.60048828 13.08966797 7.60048828 13.08966797 7.51171875 11.33203125 C6.82310158 6.84813469 5.48728438 4.15876844 1.89331055 1.35864258 C1.26851807 0.91029053 0.64372559 0.46193848 0 0 Z " fill="#609CFC" transform="translate(130,29)"/>
<path d="M0 0 C7.92 0 15.84 0 24 0 C25.155 3.3825 26.31 6.765 27.5 10.25 C27.86544922 11.30993164 28.23089844 12.36986328 28.60742188 13.46191406 C28.89166016 14.30463867 29.17589844 15.14736328 29.46875 16.015625 C29.90864258 17.30388184 29.90864258 17.30388184 30.35742188 18.61816406 C31 21 31 21 31 25 C22.42 25 13.84 25 5 25 C5 26.98 5 28.96 5 31 C4.67 31 4.34 31 4 31 C3.87882813 29.88882813 3.75765625 28.77765625 3.6328125 27.6328125 C2.41601769 16.74146371 2.41601769 16.74146371 0.3671875 5.98046875 C0 4 0 4 0 0 Z " fill="#DBE7FA" transform="translate(132,51)"/>
<path d="M0 0 C7.92 0 15.84 0 24 0 C25.125 9 25.125 9 25.09765625 12.28125 C25.09515869 12.91095703 25.09266113 13.54066406 25.09008789 14.18945312 C25.08098389 14.95193359 25.07187988 15.71441406 25.0625 16.5 C25.041875 18.975 25.02125 21.45 25 24 C16.42 24 7.84 24 -1 24 C-1.020625 21.525 -1.04125 19.05 -1.0625 16.5 C-1.071604 15.73751953 -1.08070801 14.97503906 -1.09008789 14.18945312 C-1.09258545 13.55974609 -1.09508301 12.93003906 -1.09765625 12.28125 C-1.10289307 11.65283203 -1.10812988 11.02441406 -1.11352539 10.37695312 C-0.94756198 6.90207183 -0.43149728 3.45197827 0 0 Z " fill="#FDFBFC" transform="translate(84,51)"/>
<path d="M0 0 C7.92 0 15.84 0 24 0 C23.54625 2.84625 23.0925 5.6925 22.625 8.625 C22.41738037 9.95265381 22.41738037 9.95265381 22.20556641 11.30712891 C22.03033447 12.38099854 22.03033447 12.38099854 21.8515625 13.4765625 C21.73635254 14.19924316 21.62114258 14.92192383 21.50244141 15.66650391 C20.89193384 18.50189325 19.91717786 21.24846643 19 24 C10.75 24 2.5 24 -6 24 C-4.50299374 15.01796242 -2.96797401 8.31032722 0 0 Z " fill="#DBE9FC" transform="translate(36,51)"/>
<path d="M0 0 C0.78826172 0.02255859 1.57652344 0.04511719 2.38867188 0.06835938 C4.32243929 0.12695839 6.25522167 0.21663173 8.1875 0.3125 C7.548125 1.055 6.90875 1.7975 6.25 2.5625 C3.91414214 5.30643661 3.91414214 5.30643661 3.1875 9.3125 C16.3875 9.3125 29.5875 9.3125 43.1875 9.3125 C43.1875 10.6325 43.1875 11.9525 43.1875 13.3125 C29.9875 13.3125 16.7875 13.3125 3.1875 13.3125 C3.1875 15.9525 3.1875 18.5925 3.1875 21.3125 C5.4975 21.3125 7.8075 21.3125 10.1875 21.3125 C10.1875 21.6425 10.1875 21.9725 10.1875 22.3125 C2.2675 22.3125 -5.6525 22.3125 -13.8125 22.3125 C-13.915625 19.610625 -14.01875 16.90875 -14.125 14.125 C-14.17052002 13.28300049 -14.21604004 12.44100098 -14.26293945 11.57348633 C-14.3362588 7.59390151 -14.06694672 5.70426718 -11.84375 2.28125 C-7.75190615 -0.37633931 -4.76000483 -0.25934645 0 0 Z " fill="#637BE0" transform="translate(25.8125,28.6875)"/>
<path d="M0 0 C7.92 0 15.84 0 24 0 C23.67 5.28 23.34 10.56 23 16 C14.42 16 5.84 16 -3 16 C-1.125 2.25 -1.125 2.25 0 0 Z " fill="#FE96A3" transform="translate(60,51)"/>
<path d="M0 0 C7.92 0 15.84 0 24 0 C25.485 7.92 25.485 7.92 27 16 C18.42 16 9.84 16 1 16 C0.67 10.72 0.34 5.44 0 0 Z " fill="#FE96A2" transform="translate(108,51)"/>
<path d="M0 0 C8.58 0 17.16 0 26 0 C26 10.57894737 26 10.57894737 22 15 C17.65559324 18.13201418 14.24126524 18.3717532 9.1171875 17.578125 C6.00868759 16.72930953 4.19345094 15.32638736 2 13 C0 9 0 9 0 0 Z " fill="#C7DCFE" transform="translate(83,75)"/>
<path d="M0 0 C2.73083902 -0.13548815 5.45491807 -0.23429855 8.1875 -0.3125 C8.95642578 -0.35439453 9.72535156 -0.39628906 10.51757812 -0.43945312 C14.58965768 -0.52683681 16.53288059 -0.30338683 20.03125 1.96875 C22.69095772 6.06385554 22.56957169 9.05735626 22.3125 13.8125 C22.209375 16.514375 22.10625 19.21625 22 22 C14.08 22 6.16 22 -2 22 C-2 21.67 -2 21.34 -2 21 C0.31 21 2.62 21 5 21 C5 18.36 5 15.72 5 13 C3.68 13 2.36 13 1 13 C1.33 11.68 1.66 10.36 2 9 C2.99 9 3.98 9 5 9 C4.22969878 5.51190809 4.22969878 5.51190809 3 2 C2.01 1.67 1.02 1.34 0 1 C0 0.67 0 0.34 0 0 Z " fill="#637AE0" transform="translate(158,29)"/>
<path d="M0 0 C8.91 0 17.82 0 27 0 C25.70036101 11.6967509 25.70036101 11.6967509 20.875 15.8125 C16.83644705 17.48059796 13.30815275 17.69143192 9 17 C5.17531952 15.01683234 1.90932579 12.92472523 0 9 C0 6.03 0 3.06 0 0 Z " fill="#E03F5B" transform="translate(164,76)"/>
<path d="M0 0 C8.91 0 17.82 0 27 0 C27 9 27 9 24.8125 12.4375 C20.42150641 16.43818305 17.00472042 17.50144858 10.9921875 17.30859375 C7.50975846 16.76915866 5.57701294 15.3372908 3 13 C0.28830699 8.11895259 0 5.75418132 0 0 Z " fill="#E03F5B" transform="translate(1,76)"/>
<path d="M0 0 C8.58 0 17.16 0 26 0 C26 6.58635315 25.99946432 9.20807216 22 14 C17.68266618 16.9741633 14.18923924 17.6486549 9 17 C5.21828987 14.96369455 1.90471198 12.91524129 0 9 C0 6.03 0 3.06 0 0 Z " fill="#C6DCFE" transform="translate(137,76)"/>
<path d="M0 0 C8.58 0 17.16 0 26 0 C26 9 26 9 23.75 12.4375 C20.15345781 15.7888234 18.56210437 16.823158 13.6875 17.375 C9.27232779 16.92599944 6.40289422 15.84014168 3 13 C-0.31273487 8.19119132 0 6.24505312 0 0 Z " fill="#C6DCFE" transform="translate(29,76)"/>
<path d="M0 0 C1.07507813 -0.00128906 2.15015625 -0.00257812 3.2578125 -0.00390625 C4.38960937 -0.00003906 5.52140625 0.00382812 6.6875 0.0078125 C7.81929687 0.00394531 8.95109375 0.00007813 10.1171875 -0.00390625 C11.19226563 -0.00261719 12.26734375 -0.00132813 13.375 0 C14.86580078 0.00169189 14.86580078 0.00169189 16.38671875 0.00341797 C18.6875 0.1328125 18.6875 0.1328125 19.6875 1.1328125 C19.8203125 2.9453125 19.8203125 2.9453125 19.8125 5.1328125 C19.81636719 6.215625 19.81636719 6.215625 19.8203125 7.3203125 C19.6875 9.1328125 19.6875 9.1328125 18.6875 10.1328125 C16.91890807 10.23227703 15.14638549 10.26361467 13.375 10.265625 C12.29992187 10.26691406 11.22484375 10.26820312 10.1171875 10.26953125 C8.98539063 10.26566406 7.85359375 10.26179688 6.6875 10.2578125 C5.55570313 10.26167969 4.42390625 10.26554687 3.2578125 10.26953125 C2.18273437 10.26824219 1.10765625 10.26695313 0 10.265625 C-0.99386719 10.26449707 -1.98773438 10.26336914 -3.01171875 10.26220703 C-5.3125 10.1328125 -5.3125 10.1328125 -6.3125 9.1328125 C-6.4453125 7.3203125 -6.4453125 7.3203125 -6.4375 5.1328125 C-6.44007812 4.4109375 -6.44265625 3.6890625 -6.4453125 2.9453125 C-6.15911199 -0.96048275 -3.26864942 0.00370956 0 0 Z " fill="#62A1FF" transform="translate(89.3125,35.8671875)"/>
<path d="M0 0 C8.58 0 17.16 0 26 0 C26 4.95 26 9.9 26 15 C25.67 15 25.34 15 25 15 C25 13.02 25 11.04 25 9 C16.42 9 7.84 9 -1 9 C-1 2 -1 2 0 0 Z " fill="#FB5C62" transform="translate(57,67)"/>
<path d="M0 0 C8.58 0 17.16 0 26 0 C26.33 2.97 26.66 5.94 27 9 C18.42 9 9.84 9 1 9 C1 10.98 1 12.96 1 15 C0.67 15 0.34 15 0 15 C0 10.05 0 5.1 0 0 Z " fill="#FB5B61" transform="translate(109,67)"/>
<path d="M0 0 C8.91 0 17.82 0 27 0 C27 2.97 27 5.94 27 9 C18.09 9 9.18 9 0 9 C0 6.03 0 3.06 0 0 Z " fill="#FFCC57" transform="translate(50,110)"/>
<path d="M0 0 C1.20527344 0.00966797 2.41054688 0.01933594 3.65234375 0.02929688 C4.90660156 0.05443359 6.16085938 0.07957031 7.453125 0.10546875 C8.72285156 0.11900391 9.99257813 0.13253906 11.30078125 0.14648438 C14.43532344 0.18183635 17.56901045 0.23118627 20.703125 0.29296875 C19.919375 1.03546875 19.135625 1.77796875 18.328125 2.54296875 C15.47183873 5.2653982 15.47183873 5.2653982 13.703125 9.29296875 C5.453125 9.29296875 -2.796875 9.29296875 -11.296875 9.29296875 C-10.296875 3.29296875 -10.296875 3.29296875 -8.62792969 1.4362793 C-5.59820599 -0.04970689 -3.36969921 -0.04768442 0 0 Z " fill="#619EFE" transform="translate(40.296875,28.70703125)"/>
<path d="M0 0 C8.58 0 17.16 0 26 0 C26 2.64 26 5.28 26 8 C17.42 8 8.84 8 0 8 C0 5.36 0 2.72 0 0 Z " fill="#DCEBFE" transform="translate(83,67)"/>
<path d="M0 0 C8.25 0 16.5 0 25 0 C25 2.64 25 5.28 25 8 C16.75 8 8.5 8 0 8 C0 5.36 0 2.72 0 0 Z " fill="#609EFD" transform="translate(29,42)"/>
<path d="M0 0 C7.92 0 15.84 0 24 0 C24 2.64 24 5.28 24 8 C15.75 8 7.5 8 -1 8 C-1 2 -1 2 0 0 Z " fill="#FE5A5E" transform="translate(60,51)"/>
<path d="M0 0 C7.92 0 15.84 0 24 0 C24 2.64 24 5.28 24 8 C16.08 8 8.16 8 0 8 C0 5.36 0 2.72 0 0 Z " fill="#DBEAFD" transform="translate(84,51)"/>
<path d="M0 0 C7.92 0 15.84 0 24 0 C24 2.64 24 5.28 24 8 C16.08 8 8.16 8 0 8 C0 5.36 0 2.72 0 0 Z " fill="#FE595D" transform="translate(108,51)"/>
<path d="M0 0 C14.85 0 29.7 0 45 0 C45 1.32 45 2.64 45 4 C30.15 4 15.3 4 0 4 C0 2.68 0 1.36 0 0 Z " fill="#6B6AAE" transform="translate(41,141)"/>
<path d="M0 0 C15.51 0 31.02 0 47 0 C47 0.99 47 1.98 47 3 C31.49 3 15.98 3 0 3 C0 2.01 0 1.02 0 0 Z " fill="#5957A4" transform="translate(22,39)"/>
<path d="M0 0 C9.24 0 18.48 0 28 0 C28 1.32 28 2.64 28 4 C18.76 4 9.52 4 0 4 C0 2.68 0 1.36 0 0 Z " fill="#6C6CAF" transform="translate(58,133)"/>
<path d="M0 0 C1.37478516 0.01740234 1.37478516 0.01740234 2.77734375 0.03515625 C3.69644531 0.04417969 4.61554687 0.05320313 5.5625 0.0625 C6.27277344 0.07410156 6.98304687 0.08570313 7.71484375 0.09765625 C7.83984375 5.84765625 7.83984375 5.84765625 6.71484375 8.09765625 C5.25691491 8.15165361 3.79841663 8.19044802 2.33984375 8.22265625 C1.52773438 8.24585937 0.715625 8.2690625 -0.12109375 8.29296875 C-2.28515625 8.09765625 -2.28515625 8.09765625 -4.28515625 6.09765625 C-3.56009338 0.15214074 -3.56009338 0.15214074 0 0 Z " fill="#FCFCFE" transform="translate(50.28515625,58.90234375)"/>
<path d="M0 0 C1.45823212 -0.0270043 2.91660675 -0.04639787 4.375 -0.0625 C5.18710938 -0.07410156 5.99921875 -0.08570313 6.8359375 -0.09765625 C9 0 9 0 11 1 C11.04254356 2.99954746 11.04080783 5.00041636 11 7 C10 8 10 8 7.93359375 8.09765625 C7.10988281 8.08605469 6.28617188 8.07445313 5.4375 8.0625 C4.61121094 8.05347656 3.78492188 8.04445313 2.93359375 8.03515625 C2.29550781 8.02355469 1.65742188 8.01195313 1 8 C-0.35439668 5.29120665 -0.06501451 2.99066732 0 0 Z " fill="#FDFDFE" transform="translate(134,59)"/>
<path d="M0 0 C3.96 0 7.92 0 12 0 C12 1.65 12 3.3 12 5 C11 6 11 6 8.49609375 6.09765625 C6.98208984 6.08025391 6.98208984 6.08025391 5.4375 6.0625 C4.42558594 6.05347656 3.41367188 6.04445313 2.37109375 6.03515625 C1.58863281 6.02355469 0.80617188 6.01195313 0 6 C0 4.02 0 2.04 0 0 Z " fill="#C6D4EF" transform="translate(121,120)"/>
<path d="M0 0 C6.93 0 13.86 0 21 0 C21 0.99 21 1.98 21 3 C14.07 3 7.14 3 0 3 C0 2.01 0 1.02 0 0 Z " fill="#5B58A3" transform="translate(41,149)"/>
<path d="M0 0 C2.97 0 5.94 0 9 0 C9.042721 1.66611905 9.04063832 3.33382885 9 5 C8 6 8 6 6.15234375 6.09765625 C4.1015625 6.06510417 2.05078125 6.03255208 0 6 C0 4.02 0 2.04 0 0 Z " fill="#C5D2EE" transform="translate(136,120)"/>
<path d="M0 0 C2.97 0 5.94 0 9 0 C9 1.98 9 3.96 9 6 C2.84765625 6.09765625 2.84765625 6.09765625 1 6 C0 5 0 5 -0.0625 2.4375 C-0.041875 1.633125 -0.02125 0.82875 0 0 Z " fill="#C5D3EF" transform="translate(109,120)"/>
<path d="M0 0 C3.96 0 7.92 0 12 0 C12 1.32 12 2.64 12 4 C8.04 4 4.08 4 0 4 C0 2.68 0 1.36 0 0 Z " fill="#CCDBF4" transform="translate(121,113)"/>
<path d="M0 0 C3.3 0 6.6 0 10 0 C10.33 1.32 10.66 2.64 11 4 C7.37 4 3.74 4 0 4 C0 2.68 0 1.36 0 0 Z " fill="#6D6DB0" transform="translate(41,133)"/>
<path d="M0 0 C3.3 0 6.6 0 10 0 C10 1.32 10 2.64 10 4 C6.7 4 3.4 4 0 4 C0 2.68 0 1.36 0 0 Z " fill="#CDDCF4" transform="translate(122,129)"/>
<path d="M0 0 C3.3 0 6.6 0 10 0 C10 1.32 10 2.64 10 4 C6.7 4 3.4 4 0 4 C0 2.68 0 1.36 0 0 Z " fill="#C8D7F1" transform="translate(137,113)"/>
<path d="M0 0 C3.3 0 6.6 0 10 0 C10 1.32 10 2.64 10 4 C6.7 4 3.4 4 0 4 C0 2.68 0 1.36 0 0 Z " fill="#C9D7F1" transform="translate(107,113)"/>
<path d="M0 0 C2.31 0 4.62 0 7 0 C7 1.32 7 2.64 7 4 C4.69 4 2.38 4 0 4 C0 2.68 0 1.36 0 0 Z " fill="#CFDFF6" transform="translate(136,129)"/>
<path d="M0 0 C2.31 0 4.62 0 7 0 C7 1.32 7 2.64 7 4 C4.69 4 2.38 4 0 4 C0 2.68 0 1.36 0 0 Z " fill="#CFDFF6" transform="translate(111,129)"/>
<path d="M0 0 C1.98 0.495 1.98 0.495 4 1 C3.67 2.32 3.34 3.64 3 5 C1.68 4.67 0.36 4.34 -1 4 C-0.67 2.68 -0.34 1.36 0 0 Z " fill="#C7D5F0" transform="translate(135,144)"/>
<path d="M0 0 C1.32 0 2.64 0 4 0 C3.67 1.65 3.34 3.3 3 5 C2.01 5 1.02 5 0 5 C0 3.35 0 1.7 0 0 Z " fill="#CBD9F3" transform="translate(117,144)"/>
</svg>
